<svg width="296" height="159" viewBox="0 0 296 159" fill="none" xmlns="http://www.w3.org/2000/svg">
<rect x="75" y="62.3926" width="146" height="35.2215" fill="#252525"/>
<rect x="22" y="159" width="159" height="44" rx="8" transform="rotate(-90 22 159)" fill="#252525"/>
<rect x="230" y="159" width="159" height="44" rx="8" transform="rotate(-90 230 159)" fill="#252525"/>
<path d="M283 101.639V62.3923H288C292.418 62.3923 296 65.974 296 70.3923V93.6392C296 98.0574 292.418 101.639 288 101.639H283Z" fill="#252525"/>
<path d="M8 97.6138C3.58172 97.6138 0 94.032 0 89.6138L0 66.3669C0 61.9487 3.58172 58.3669 8 58.3669H13L13 97.6138H8Z" fill="#252525"/>
</svg>
